<?xml version="1.0" encoding="UTF-8"?>
<svg version="1.1" xmlns="http://www.w3.org/2000/svg" width="16" height="16">
<path d="M0 0 C5.28 0 10.56 0 16 0 C16 5.28 16 10.56 16 16 C10.72 16 5.44 16 0 16 C0 10.72 0 5.44 0 0 Z " fill="#525353" transform="translate(0,0)"/>
<path d="M0 0 C-0.33 0.61875 -0.66 1.2375 -1 1.875 C-2.14193235 3.91018344 -2.14193235 3.91018344 -2 6 C-0.68 5.67 0.64 5.34 2 5 C0.125 9.75 0.125 9.75 -1 12 C-3.06640625 12.4140625 -3.06640625 12.4140625 -5.5625 12.625 C-6.80193359 12.73714844 -6.80193359 12.73714844 -8.06640625 12.8515625 C-9.02353516 12.92503906 -9.02353516 12.92503906 -10 13 C-10.41713515 11.56853622 -10.8080497 10.12941114 -11.1875 8.6875 C-11.40792969 7.88699219 -11.62835938 7.08648437 -11.85546875 6.26171875 C-12 4 -12 4 -10.703125 2.25 C-7.39985751 -0.17441651 -3.99243041 0 0 0 Z " fill="#174871" transform="translate(13,1)"/>
<path d="M0 0 C0 0.66 0 1.32 0 2 C-6.625 5 -6.625 5 -10 5 C-9.67 6.32 -9.34 7.64 -9 9 C-9.99 9.495 -9.99 9.495 -11 10 C-11.6875 7.1875 -11.6875 7.1875 -12 4 C-10.47501126 1.5430737 -9.33541208 1.09460341 -6.5625 0.3125 C-4 0 -4 0 0 0 Z " fill="#0570A0" transform="translate(13,1)"/>
<path d="M0 0 C2.12508244 3.18762365 2.5020163 5.26512223 3 9 C4.98 8.67 6.96 8.34 9 8 C7.875 9.5 7.875 9.5 6 11 C2.8125 11.1875 2.8125 11.1875 0 11 C0 7.37 0 3.74 0 0 Z " fill="#606061" transform="translate(0,5)"/>
<path d="M0 0 C0.66 0.33 1.32 0.66 2 1 C1.67 1.99 1.34 2.98 1 4 C2.32 3.67 3.64 3.34 5 3 C3.25 5.5 3.25 5.5 1 8 C-0.32 8 -1.64 8 -3 8 C-2.814375 7.21625 -2.62875 6.4325 -2.4375 5.625 C-1.74037734 3.02910225 -1.74037734 3.02910225 -3 1 C-2.01 0.67 -1.02 0.34 0 0 Z " fill="#0C507F" transform="translate(10,3)"/>
</svg>
